<?xml version="1.0" encoding="UTF-8"?>
<svg width="221.43" height="64" version="1.1" viewBox="0 0 58.586 16.933" xmlns="http://www.w3.org/2000/svg">
 <g transform="translate(37.155)">
  <rect x="13.757" y="7.6729" width="6.6146" height="1.5875" fill="#db2878" style="paint-order:normal"/>
  <path d="m17.732 6.0854 2.1192 2.3812-2.1192 2.3812h1.5813l0.9958-1.1193 5.29e-4 5.29e-4 0.3297-0.37104 0.7922-0.89038-5.02e-4 -1e-3 5.02e-4 -1e-3 -0.7922-0.89039-0.3297-0.37104-5.29e-4 5.29e-4 -0.9958-1.1193z" fill="#db2878" style="paint-order:normal"/>
  <g fill="#db2777">
   <path d="m9.3995 9.6885h-1.5232v-4.3613l-1.1006 2.8302h-1.0567l-1.1005-2.8302v4.3613h-1.4435v-6.5134h1.7784l1.3358 3.2677 1.3318-3.2677h1.7784z"/>
   <path d="m12.171 14.023h-4.2945v-6.1611h4.2945v1.1917h-2.7713v1.0634h2.5719v1.1917h-2.5719v1.5227h2.7713z"/>
   <path d="m2.3333e-6 2e-6v16.933h16.933v-6.0854h-1.5875v4.7625h-13.758v-14.023h13.758v4.4979h1.5875v-6.0854h-15.346z" style="paint-order:normal"/>
   <g stroke-width=".26993" aria-label="MIS ESCAPES">
    <path d="m-16.974 7.314v-5.623h1.3885l0.90554 2.501q0.08624 0.2501 0.16386 0.51745 0.07762 0.25873 0.16386 0.51745h0.0345q0.08624-0.25873 0.15524-0.51745 0.07762-0.26735 0.16386-0.51745l0.88829-2.501h1.3799v5.623h-1.1556v-2.0612q0-0.20698 0.01725-0.45708 0.01725-0.2501 0.04312-0.5002 0.02587-0.25873 0.05175-0.5002 0.02587-0.2501 0.05174-0.45708h-0.0345l-0.45708 1.3367-0.80205 2.1474h-0.69856l-0.80205-2.1474-0.44846-1.3367h-0.0345q0.02587 0.20698 0.05175 0.45708 0.02587 0.24148 0.05175 0.5002 0.02587 0.2501 0.04312 0.5002 0.01725 0.2501 0.01725 0.45708v2.0612z"/>
    <path d="m-10.402 7.314v-5.623h1.2678v5.623z"/>
    <path d="m-6.0903 7.4174q-0.55195 0-1.1039-0.19836-0.54332-0.20698-0.97453-0.61232l0.72443-0.87104q0.30185 0.25873 0.66406 0.42258 0.37084 0.16386 0.72443 0.16386 0.39671 0 0.58644-0.14661 0.19836-0.14661 0.19836-0.39671 0-0.12936-0.060369-0.22423-0.051745-0.094866-0.16386-0.16386-0.10349-0.077618-0.25873-0.13799-0.14661-0.068993-0.32772-0.14661l-0.73306-0.31047q-0.2156-0.086242-0.42258-0.22423-0.19836-0.13799-0.36222-0.31909-0.15524-0.18973-0.2501-0.43121-0.094866-0.2501-0.094866-0.56057 0-0.34497 0.14661-0.64681 0.14661-0.31047 0.41396-0.5347 0.26735-0.23285 0.62957-0.36222 0.37084-0.12936 0.81067-0.12936 0.49158 0 0.96591 0.18973 0.48295 0.18973 0.84517 0.55195l-0.64681 0.80205q-0.27597-0.2156-0.55195-0.32772-0.27597-0.12074-0.61232-0.12074-0.32772 0-0.52608 0.13799-0.18973 0.12936-0.18973 0.37084 0 0.12936 0.060369 0.22423 0.068993 0.086242 0.18111 0.16386 0.12074 0.068993 0.27597 0.13799 0.15524 0.060369 0.33634 0.13799l0.72443 0.29322q0.51745 0.20698 0.81067 0.5692 0.30185 0.36222 0.30185 0.95728 0 0.35359-0.14661 0.67269-0.13799 0.31047-0.41396 0.55195-0.26735 0.23285-0.66406 0.37946-0.39671 0.13799-0.89691 0.13799z"/>
    <path d="m-37.155 15.507v-5.623h3.5187v1.0694h-2.2509v1.1298h1.9146v1.0608h-1.9146v1.2936h2.3372v1.0694z"/>
    <path d="m-30.712 15.61q-0.55195 0-1.1039-0.19836-0.54332-0.20698-0.97453-0.61232l0.72443-0.87104q0.30185 0.25872 0.66406 0.42258 0.37084 0.16386 0.72443 0.16386 0.39671 0 0.58644-0.14661 0.19836-0.14661 0.19836-0.39671 0-0.12936-0.06037-0.22423-0.05175-0.09487-0.16386-0.16386-0.10349-0.07762-0.25872-0.13799-0.14661-0.06899-0.32772-0.14661l-0.73306-0.31047q-0.2156-0.08624-0.42258-0.22423-0.19836-0.13799-0.36222-0.31909-0.15524-0.18973-0.2501-0.43121-0.09487-0.2501-0.09487-0.56057 0-0.34497 0.14661-0.64681 0.14661-0.31047 0.41396-0.5347 0.26735-0.23285 0.62956-0.36222 0.37084-0.12936 0.81067-0.12936 0.49158 0 0.96591 0.18973 0.48295 0.18973 0.84517 0.55195l-0.64681 0.80205q-0.27597-0.2156-0.55195-0.32772-0.27597-0.12074-0.61232-0.12074-0.32772 0-0.52608 0.13799-0.18973 0.12936-0.18973 0.37084 0 0.12936 0.06037 0.22423 0.06899 0.08624 0.18111 0.16386 0.12074 0.06899 0.27597 0.13799 0.15524 0.06037 0.33634 0.13799l0.72443 0.29322q0.51745 0.20698 0.81067 0.5692 0.30185 0.36222 0.30185 0.95728 0 0.35359-0.14661 0.67269-0.13799 0.31047-0.41396 0.55195-0.26735 0.23285-0.66406 0.37946-0.39671 0.13799-0.89691 0.13799z"/>
    <path d="m-25.288 15.61q-0.5347 0-1.009-0.18111-0.47433-0.18973-0.83655-0.55195-0.35359-0.36222-0.56057-0.89691-0.20698-0.54332-0.20698-1.2505 0-0.69856 0.2156-1.2419 0.2156-0.55195 0.57782-0.93141 0.36222-0.37946 0.84517-0.57782 0.48296-0.19836 1.0177-0.19836 0.54332 0 0.97453 0.22423 0.43121 0.2156 0.71581 0.50883l-0.67269 0.81067q-0.2156-0.19836-0.45708-0.31909-0.23285-0.12936-0.5347-0.12936-0.2846 0-0.54332 0.12936-0.2501 0.12074-0.43983 0.35359-0.18111 0.23285-0.29322 0.5692-0.10349 0.33634-0.10349 0.75893 0 0.87104 0.37084 1.354 0.37084 0.47433 0.99178 0.47433 0.34497 0 0.61232-0.14661 0.27597-0.15524 0.48295-0.37946l0.67269 0.79342q-0.70718 0.82792-1.8197 0.82792z"/>
    <path d="m-21.295 12.661-0.13799 0.51745h1.1988l-0.12936-0.51745q-0.12074-0.42258-0.23285-0.89691-0.11211-0.47433-0.22423-0.91416h-0.0345q-0.10349 0.44846-0.2156 0.92279-0.10349 0.4657-0.22423 0.88829zm-2.0353 2.846 1.7593-5.623h1.5265l1.7593 5.623h-1.3454l-0.34497-1.3367h-1.7162l-0.34497 1.3367z"/>
    <path d="m-17.673 15.507v-5.623h1.9318q0.4657 0 0.87104 0.094866 0.40534 0.086242 0.70718 0.30185 0.30185 0.20698 0.47433 0.56057 0.18111 0.34497 0.18111 0.85379 0 0.49158-0.18111 0.85379-0.17248 0.36222-0.47433 0.59507-0.30185 0.23285-0.69856 0.34497-0.39671 0.11211-0.84517 0.11211h-0.69856v1.9059zm1.2678-2.915h0.62094q1.0349 0 1.0349-0.89692 0-0.43983-0.27597-0.62094-0.27597-0.18111-0.79342-0.18111h-0.58644z"/>
    <path d="m-12.533 15.507v-5.623h3.5187v1.0694h-2.2509v1.1298h1.9146v1.0608h-1.9146v1.2936h2.3372v1.0694z"/>
    <path d="m-6.0903 15.61q-0.55195 0-1.1039-0.19836-0.54332-0.20698-0.97453-0.61232l0.72443-0.87104q0.30185 0.25872 0.66406 0.42258 0.37084 0.16386 0.72443 0.16386 0.39671 0 0.58644-0.14661 0.19836-0.14661 0.19836-0.39671 0-0.12936-0.060369-0.22423-0.051745-0.09487-0.16386-0.16386-0.10349-0.07762-0.25873-0.13799-0.14661-0.06899-0.32772-0.14661l-0.73306-0.31047q-0.2156-0.08624-0.42258-0.22423-0.19836-0.13799-0.36222-0.31909-0.15524-0.18973-0.2501-0.43121-0.094866-0.2501-0.094866-0.56057 0-0.34497 0.14661-0.64681 0.14661-0.31047 0.41396-0.5347 0.26735-0.23285 0.62957-0.36222 0.37084-0.12936 0.81067-0.12936 0.49158 0 0.96591 0.18973 0.48295 0.18973 0.84517 0.55195l-0.64681 0.80205q-0.27597-0.2156-0.55195-0.32772-0.27597-0.12074-0.61232-0.12074-0.32772 0-0.52607 0.13799-0.18973 0.12936-0.18973 0.37084 0 0.12936 0.060369 0.22423 0.068993 0.08624 0.18111 0.16386 0.12074 0.06899 0.27597 0.13799 0.15524 0.06037 0.33634 0.13799l0.72443 0.29322q0.51745 0.20698 0.81067 0.5692 0.30185 0.36222 0.30185 0.95728 0 0.35359-0.14661 0.67269-0.13799 0.31047-0.41396 0.55195-0.26735 0.23285-0.66406 0.37946-0.39671 0.13799-0.89691 0.13799z"/>
   </g>
  </g>
 </g>
</svg>
