<?xml version="1.0" encoding="UTF-8"?>
<svg width="81.002" height="64" version="1.1" viewBox="0 0 21.432 16.933" xmlns="http://www.w3.org/2000/svg">
 <g>
  <rect x="13.757" y="7.6729" width="6.6146" height="1.5875" fill="#db2878" style="paint-order:normal"/>
  <path d="m17.732 6.0854 2.1192 2.3812-2.1192 2.3812h1.5813l0.9958-1.1193 5.29e-4 5.29e-4 0.3297-0.37104 0.7922-0.89038-5.02e-4 -1e-3 5.02e-4 -1e-3 -0.7922-0.89039-0.3297-0.37104-5.29e-4 5.29e-4 -0.9958-1.1193z" fill="#db2878" style="paint-order:normal"/>
  <g fill="#db2777">
   <path d="m9.3995 9.6885h-1.5232v-4.3613l-1.1006 2.8302h-1.0567l-1.1005-2.8302v4.3613h-1.4435v-6.5134h1.7784l1.3358 3.2677 1.3318-3.2677h1.7784z"/>
   <path d="m12.171 14.023h-4.2945v-6.1611h4.2945v1.1917h-2.7713v1.0634h2.5719v1.1917h-2.5719v1.5227h2.7713z"/>
   <path d="m2.3333e-6 2e-6v16.933h16.933v-6.0854h-1.5875v4.7625h-13.758v-14.023h13.758v4.4979h1.5875v-6.0854h-15.346z" style="paint-order:normal"/>
  </g>
 </g>
</svg>
